<svg viewBox="0 0 10 8" fill="none" xmlns="http://www.w3.org/2000/svg">
    <path d="M3.31481 6.23116L8.85185 0.221106C8.98654 0.0737018 9.14364 0 9.32315 0C9.50278 0 9.66049 0.0737018 9.7963 0.221106C9.9321 0.368509 10 0.5399 10 0.735277C10 0.930654 9.93451 1.09943 9.80352 1.24161L3.7963 7.77889C3.6616 7.9263 3.50451 8 3.325 8C3.14537 8 2.98765 7.9263 2.85185 7.77889L0.203704 4.90452C0.0679012 4.75712 0 4.58626 0 4.39196C0 4.19765 0.0679012 4.0268 0.203704 3.8794C0.339506 3.73199 0.497963 3.65829 0.679074 3.65829C0.860062 3.65829 1.01642 3.73199 1.14815 3.8794L3.31481 6.23116Z" fill="#8190A8"/>
</svg>